#!OML:ASF F:\VICON\USERDATA\Patient Classification 1\PLAYGROUND\JustinFriday\JustinFriday.ASF
:FULLY-SPECIFIED
:DEGREES
4492
root 14.2139 26.9203 48.6977 -5.17568 -177.654 3.45272
lowerback 12.9425 -3.52119 10.1311
upperback 12.693 -6.46137 -0.0155355
thorax 5.5677 -3.53886 -5.20886
lowerneck -24.1236 -11.0494 -6.25366
upperneck 1.2767 -13.8595 19.0313
head 6.17282 -4.92135 5.39927
rclavicle 2.79417e-014 -1.35174e-014
rhumerus 96.3441 19.9243 -77.1765
rradius 52.834
rwrist 17.2205
rhand -24.6573 344.079
rfingers 7.12502
rthumb 1.84253 -45.8928
lclavicle 2.79417e-014 -1.35174e-014
lhumerus 86.4796 18.2776 68.2761
lradius 48.727
lwrist -17.4977
lhand -12.0876 -10.3766
lfingers 7.12502
lthumb 13.9726 19.1339
rfemur -15.3963 1.16481 29.0276
rtibia 31.065
rfoot -24.9328 -9.2168
rtoes 26.4025
lfemur -14.3131 4.84319 -12.5711
ltibia 30.6327
lfoot -25.2001 1.15861
ltoes -9.10284
4493
root 14.222 26.9227 48.6548 -5.18968 -177.924 3.70405
lowerback 12.9972 -3.42433 10.2324
upperback 12.6679 -6.32376 0.0709394
thorax 5.53723 -3.47119 -5.18213
lowerneck -24.4701 -10.9517 -6.02381
upperneck 1.78722 -13.8279 18.351
head 6.29491 -4.93187 5.13757
rclavicle -1.61513e-015 3.516e-014
rhumerus 96.1097 19.7712 -76.9047
rradius 53.3199
rwrist 17.1271
rhand -24.7052 343.986
rfingers 7.12502
rthumb 1.79628 -45.9866
lclavicle -1.61513e-015 3.516e-014
lhumerus 86.2533 18.1997 68.4081
lradius 49.2894
lwrist -17.5591
lhand -11.9676 -10.2768
lfingers 7.12502
lthumb 14.0882 19.2257
rfemur -15.2047 1.42187 29.3823
rtibia 31.0183
rfoot -24.8755 -9.38657
rtoes 26.7121
lfemur -14.2401 5.18967 -12.1785
ltibia 30.8658
lfoot -25.3526 1.09173
ltoes -9.52116
4494
root 14.2124 26.9298 48.6175 -5.20993 -177.408 3.98607
lowerback 12.8262 -3.65194 10.6894
upperback 12.6766 -6.60798 0.105542
thorax 5.57616 -3.57589 -5.37958
lowerneck -24.654 -10.8597 -6.12293
upperneck 1.97597 -13.6897 18.2064
head 6.35809 -4.86429 5.12423
rclavicle -5.10628e-014 5.80203e-014
rhumerus 95.7862 19.4677 -76.3795
rradius 54.2131
rwrist 16.7374
rhand -24.9703 343.873
rfingers 7.12502
rthumb 1.54023 -46.1011
lclavicle -5.10628e-014 5.80203e-014
lhumerus 86.0797 18.1661 68.4826
lradius 49.8638
lwrist -17.5455
lhand -11.8449 -10.2063
lfingers 7.12502
lthumb 14.2064 19.2879
rfemur -15.0835 1.09959 29.6039
rtibia 30.972
rfoot -24.8616 -9.45945
rtoes 27.3315
lfemur -14.382 4.60983 -11.9512
ltibia 31.1371
lfoot -25.4065 1.13813
ltoes -8.23619
4495
root 14.2222 26.9282 48.5718 -5.38863 -177.797 3.9453
lowerback 12.9123 -3.4707 10.4174
upperback 12.7573 -6.41676 0.10531
thorax 5.66767 -3.50654 -5.25279
lowerneck -24.5789 -10.8115 -6.2759
upperneck 1.84038 -13.5597 18.2848
head 6.30656 -4.80622 5.19732
rclavicle -4.84786e-014 2.48481e-014
rhumerus 95.5316 19.2312 -76.052
rradius 54.7376
rwrist 16.5447
rhand -24.8972 343.887
rfingers 7.12502
rthumb 1.61087 -46.0866
lclavicle -4.84786e-014 2.48481e-014
lhumerus 85.9114 18.1077 68.5669
lradius 50.4145
lwrist -17.6163
lhand -11.755 -10.1053
lfingers 7.12502
lthumb 14.293 19.3827
rfemur -14.6514 1.43398 29.6588
rtibia 30.8949
rfoot -24.6772 -9.30453
rtoes 28.0373
lfemur -14.1037 4.83795 -11.8697
ltibia 31.5523
lfoot -25.6313 1.03701
ltoes -6.74848
4496
root 14.2227 26.9332 48.5304 -5.42256 -177.378 4.11643
lowerback 12.7939 -3.6005 10.5269
upperback 12.7497 -6.58745 0.169075
thorax 5.697 -3.58096 -5.23561
lowerneck -24.3963 -10.7996 -6.17324
upperneck 1.68447 -13.5329 18.063
head 6.19554 -4.83177 5.11752
rclavicle 3.2551e-014 -3.35449e-014
rhumerus 95.0599 19.0265 -75.8099
rradius 55.7924
rwrist 16.6207
rhand -24.3466 343.621
rfingers 7.12502
rthumb 2.14259 -46.3477
lclavicle 3.2551e-014 -3.35449e-014
lhumerus 85.6749 18.0028 68.6623
lradius 51.015
lwrist -17.6987
lhand -11.598 -9.93586
lfingers 7.12502
lthumb 14.4444 19.5415
rfemur -14.5232 1.28947 29.8198
rtibia 30.9659
rfoot -24.7484 -9.83029
rtoes 27.9738
lfemur -14.1797 4.60906 -11.7068
ltibia 31.8468
lfoot -25.6036 0.712874
ltoes -6.31782
4497
root 14.2327 26.9342 48.5086 -5.45525 -177.528 4.92121
lowerback 13.1333 -3.59591 11.0963
upperback 12.6575 -6.5104 0.41733
thorax 5.42742 -3.53856 -5.25414
lowerneck -24.3798 -10.7345 -6.02962
upperneck 1.73516 -13.464 17.6744
head 6.15096 -4.83571 4.98005
rclavicle -4.60187e-014 6.13748e-014
rhumerus 94.6803 18.8022 -75.5178
rradius 56.5999
rwrist 16.7237
rhand -24.2834 343.579
rfingers 7.12502
rthumb 2.20363 -46.3895
lclavicle -4.60187e-014 6.13748e-014
lhumerus 85.3628 17.9492 68.6426
lradius 51.7077
lwrist -17.7366
lhand -11.4719 -9.79581
lfingers 7.12502
lthumb 14.5659 19.6728
rfemur -14.5312 1.76662 30.7857
rtibia 31.1344
rfoot -24.7127 -10.4934
rtoes 28.2035
lfemur -14.2393 4.76488 -10.7172
ltibia 31.974
lfoot -25.3995 0.697672
ltoes -6.8349
4498
root 14.2232 26.9539 48.4788 -4.97324 -177.297 3.88795
lowerback 12.8792 -3.6117 10.182
upperback 12.4941 -6.50839 0.128292
thorax 5.37779 -3.55478 -5.06618
lowerneck -24.5178 -10.627 -5.9524
upperneck 1.94299 -13.3373 17.2457
head 6.17435 -4.80265 4.84535
rclavicle 2.92462e-014 -1.26228e-014
rhumerus 94.3539 18.5439 -75.1529
rradius 57.3444
rwrist 16.5608
rhand -24.3125 343.615
rfingers 7.12502
rthumb 2.17553 -46.3539
lclavicle 2.92462e-014 -1.26228e-014
lhumerus 85.1057 17.9333 68.5923
lradius 52.3313
lwrist -17.8587
lhand -11.2963 -9.56857
lfingers 7.12502
lthumb 14.735 19.8877
rfemur -14.9224 1.12518 29.5403
rtibia 31.1841
rfoot -24.2912 -9.91702
rtoes 29.0793
lfemur -14.7279 4.59725 -12.0137
ltibia 32.2149
lfoot -25.3708 1.00258
ltoes -7.53147
